# xmcd
#
# Track frame offsets:
#	150
#	16885
#	31375
#	50137
#	69895
#	86032
#	103360
#	122972
#
# Disc length: 1816 seconds
#
# Revision: 1
# Processed by: cddbd v1.4PL0 Copyright (c) Steve Scherf et al.
# Submitted via: audiograbber 1.82.01
#
DISCID=6c071608
DTITLE=Julia - Chante Elias Rahbani
DYEAR=1900
DGENRE=
TTITLE0=Apprends Moi Le Tango
TTITLE1=Eh Chaque Nuit
TTITLE2=C'est La Vie
TTITLE3=Viens Dans Ma Vie
TTITLE4=Mon Coeur Bat
TTITLE5=Ma Belle Histoire
TTITLE6=Restez
TTITLE7=A Maman
EXTD=
EXTT0=
EXTT1=
EXTT2=
EXTT3=
EXTT4=
EXTT5=
EXTT6=
EXTT7=
PLAYORDER=
